<?xml version="1.0" encoding="utf-8"?>
<!-- Generator: Adobe Illustrator 19.0.0, SVG Export Plug-In . SVG Version: 6.00 Build 0)  -->
<svg version="1.1" id="Capa_1" xmlns="http://www.w3.org/2000/svg" xmlns:xlink="http://www.w3.org/1999/xlink" x="0px" y="0px"
	 viewBox="-486 209 27.3 27.3" style="enable-background:new -486 209 27.3 27.3;" xml:space="preserve">
<style type="text/css">
	.st0{fill:#3E82E5;}
</style>
<g>
	<g>
		<path class="st0" d="M-472.4,211c-6.5,0-11.8,5.3-11.8,11.8s5.3,11.8,11.8,11.8c6.5,0,11.8-5.3,11.8-11.8S-465.8,211-472.4,211z
			 M-472.4,232.7c-5.5,0-9.9-4.4-9.9-9.9c0-5.5,4.4-9.9,9.9-9.9c5.5,0,9.9,4.4,9.9,9.9C-462.5,228.3-466.9,232.7-472.4,232.7z"/>
		<path class="st0" d="M-467.3,218.3l-7,7l-3.2-3.2c-0.4-0.4-1-0.4-1.4,0c-0.4,0.4-0.4,1,0,1.4l3.9,3.9c0.2,0.2,0.4,0.3,0.7,0.3
			s0.5-0.1,0.7-0.3l7.7-7.7c0.4-0.4,0.4-1,0-1.4C-466.3,217.9-466.9,217.9-467.3,218.3z"/>
	</g>
</g>
</svg>
